<?xml version="1.0" standalone="no"?>
<!DOCTYPE svg PUBLIC "-//W3C//DTD SVG 20010904//EN"
 "http://www.w3.org/TR/2001/REC-SVG-20010904/DTD/svg10.dtd">
<svg version="1.0" xmlns="http://www.w3.org/2000/svg"
 width="400.000000pt" height="400.000000pt" viewBox="0 0 400.000000 400.000000"
 preserveAspectRatio="xMidYMid meet">

<g transform="translate(0.000000,400.000000) scale(0.100000,-0.100000)"
fill="#000000" stroke="none">
<path d="M260 2715 c0 -134 78 -253 191 -290 30 -10 48 -20 41 -23 -19 -6
-102 16 -140 38 -30 18 -32 18 -23 2 23 -43 99 -100 162 -120 93 -31 165 -40
334 -41 83 -1 178 -6 213 -12 35 -6 65 -9 67 -7 3 2 -19 11 -48 20 -145 45
-377 122 -412 138 -22 9 -49 20 -59 24 -10 3 -17 8 -15 11 3 2 97 -23 209 -56
113 -33 230 -67 260 -75 30 -8 64 -17 75 -20 11 -4 -3 12 -32 34 -28 23 -64
58 -80 79 -38 51 -53 65 -104 100 -68 47 -104 53 -42 7 73 -54 74 -70 2 -28
-72 43 -141 67 -233 83 -77 13 -91 10 -49 -13 36 -20 12 -20 -51 -1 -100 30
-198 104 -232 174 -10 23 -22 41 -26 41 -5 0 -8 -29 -8 -65z"/>
<path d="M903 2575 c26 -14 89 -67 140 -119 83 -83 183 -166 202 -166 4 0 20
-10 37 -21 31 -22 238 -111 358 -153 36 -13 116 -46 176 -75 61 -28 115 -51
121 -51 14 0 337 -166 416 -214 281 -171 527 -338 508 -344 -7 -2 -30 8 -51
22 -22 14 -42 26 -45 26 -2 0 -35 19 -72 43 -38 24 -133 81 -213 126 -80 46
-156 91 -170 101 -14 10 -104 56 -200 102 -410 200 -650 237 -1165 183 -22 -2
-84 -6 -138 -10 -55 -3 -116 -13 -141 -23 -41 -16 -116 -72 -116 -85 0 -4 25
3 55 14 51 19 114 25 230 20 37 -2 39 -3 21 -16 -18 -14 -16 -15 30 -17 125
-5 209 3 309 27 244 60 339 63 571 15 139 -29 459 -162 495 -206 8 -10 10 -15
4 -12 -23 13 -135 63 -214 95 -171 69 -351 105 -531 105 -113 0 -181 -10 -323
-47 -103 -27 -99 -28 75 -30 54 -1 100 -4 103 -6 3 -3 -26 -13 -64 -22 -84
-21 -188 -22 -261 -3 l-55 14 37 -32 c79 -69 197 -104 310 -91 31 3 98 19 150
35 99 31 220 51 238 40 7 -4 -15 -12 -47 -19 -58 -11 -165 -56 -113 -47 14 3
43 8 65 12 22 3 38 4 35 1 -13 -14 -195 -88 -230 -93 -100 -16 4 -40 134 -31
74 5 182 27 206 42 6 3 10 2 10 -4 0 -16 -63 -50 -121 -64 -35 -9 -47 -16 -34
-19 31 -6 154 18 215 42 79 32 147 46 229 49 83 3 97 -14 19 -24 -29 -4 -66
-13 -83 -20 -28 -13 -29 -13 -6 -14 13 -1 21 -4 18 -8 -14 -13 -179 -73 -202
-73 -38 0 -38 -17 1 -24 64 -13 177 -7 284 14 110 21 218 25 285 10 122 -26
122 -30 -6 -30 -73 0 -140 -8 -224 -26 -169 -35 -311 -41 -395 -16 -36 11 -73
23 -82 27 -65 27 48 -87 118 -120 80 -38 159 -37 232 4 96 53 183 94 188 88 3
-3 -20 -23 -52 -46 -31 -23 -55 -41 -52 -41 3 0 39 16 80 35 86 41 196 65 274
59 77 -5 106 -23 39 -24 -78 -1 -130 -17 -203 -62 -37 -23 -69 -45 -72 -49 -3
-3 -35 -20 -71 -37 -46 -22 -89 -34 -140 -39 l-74 -6 45 -20 c61 -27 176 -28
248 -2 28 10 52 23 52 27 0 4 5 8 11 8 6 0 25 11 43 25 50 38 55 30 11 -16
-45 -46 -32 -43 64 19 71 45 117 60 201 68 84 7 104 -11 22 -20 -79 -9 -186
-79 -243 -158 l-19 -26 53 28 c59 32 174 66 184 56 4 -4 1 -11 -7 -16 -32 -20
4 -8 80 26 43 20 84 34 90 32 10 -3 -78 -75 -110 -90 -37 -17 29 -7 78 12 29
11 68 20 86 20 31 0 35 4 41 32 14 63 47 139 79 181 36 48 40 70 25 147 -10
47 -13 52 -24 37 -17 -24 -23 -21 -19 11 5 38 -41 127 -80 157 -18 14 -36 25
-39 25 -3 0 11 -28 33 -62 21 -35 48 -97 59 -138 11 -42 23 -84 27 -95 15 -43
-24 10 -56 75 -58 119 -65 131 -79 143 -12 9 -13 9 -7 0 4 -7 9 -34 12 -60 3
-27 9 -60 14 -75 6 -20 5 -26 -4 -22 -16 6 -39 56 -66 144 -11 36 -31 79 -46
95 -14 17 -23 25 -20 19 10 -20 17 -179 7 -169 -5 6 -28 63 -51 129 -23 65
-44 125 -47 134 -5 11 -10 3 -19 -24 l-12 -39 -1 41 c-2 85 -58 188 -128 237
-48 33 -64 35 -36 5 26 -29 53 -101 59 -153 2 -22 7 -50 9 -62 7 -32 -2 -28
-25 10 -25 40 -25 31 -1 -25 16 -37 53 -90 135 -196 19 -25 19 -25 -1 -14 -39
21 -141 127 -171 177 -16 28 -44 91 -62 142 -21 59 -42 101 -61 119 l-30 28
15 -41 c8 -22 24 -81 36 -129 13 -49 35 -115 51 -146 32 -65 26 -75 -16 -25
-30 35 -55 88 -90 187 -42 120 -78 184 -130 235 -57 56 -142 105 -224 129 -65
19 -115 21 -55 2 86 -27 194 -124 239 -214 31 -61 29 -92 -3 -41 -22 36 -152
169 -152 156 0 -5 18 -27 39 -50 41 -43 101 -122 101 -133 0 -3 11 -20 25 -38
14 -18 25 -36 25 -40 0 -4 12 -23 26 -42 15 -19 24 -37 21 -40 -9 -9 -119 99
-169 165 -46 59 -57 72 -100 110 l-27 23 14 -45 c20 -68 50 -120 92 -162 21
-22 30 -36 20 -32 -10 4 -23 7 -27 7 -5 0 -31 22 -58 49 -37 37 -56 67 -76
122 -34 92 -63 130 -129 172 -40 26 -134 67 -153 67 -2 0 21 -26 51 -57 30
-31 55 -61 55 -66 0 -6 22 -43 50 -84 27 -40 45 -73 40 -73 -16 0 -67 50 -113
109 -128 169 -263 258 -432 287 -43 7 -42 3 10 -35 17 -12 80 -70 140 -129
124 -121 175 -164 243 -205 46 -28 31 -29 -35 -1 -50 20 -168 99 -218 145 -25
23 -48 40 -51 37 -3 -3 16 -24 42 -47 58 -51 51 -64 -13 -23 -58 38 -87 64
-133 122 -81 101 -111 127 -180 159 -39 18 -90 35 -113 37 l-42 5 48 -26z"/>
<path d="M455 2260 c46 -31 131 -60 181 -62 24 -1 47 -5 50 -9 7 -12 -99 -22
-146 -14 -57 10 -46 -5 32 -43 103 -49 219 -62 345 -38 10 2 81 12 158 21 139
17 285 15 393 -5 98 -18 3 21 -163 66 -169 47 -287 62 -485 63 -184 2 -293 11
-344 31 -44 16 -53 11 -21 -10z"/>
<path d="M3021 1434 c-45 -51 -72 -103 -95 -181 -13 -47 -13 -54 0 -68 22 -22
33 -19 39 13 22 106 61 188 107 227 15 13 28 28 28 33 0 8 -22 22 -35 22 -2 0
-21 -21 -44 -46z"/>
<path d="M3153 1426 c5 -13 -30 -66 -64 -96 -3 -3 -13 -16 -22 -30 -19 -27
-22 -15 -7 26 20 50 1 36 -28 -22 -48 -96 -50 -163 -5 -183 22 -10 25 -9 20 4
-6 15 8 22 15 7 3 -7 131 -82 140 -82 3 0 5 17 6 38 2 34 18 99 37 144 5 14
-4 22 -48 43 -31 14 -61 25 -66 25 -22 0 -10 25 34 66 l45 44 -32 16 c-28 15
-30 15 -25 0z"/>
<path d="M3220 1382 c0 -12 99 -57 107 -49 3 4 4 9 1 13 -12 11 -108 43 -108
36z"/>
<path d="M3318 1281 c-49 -57 -79 -124 -87 -191 -7 -56 -6 -59 20 -74 15 -9
29 -16 32 -16 2 0 7 24 10 54 7 74 37 136 91 194 25 27 46 52 46 54 0 3 -8 9
-17 12 -11 5 -29 -5 -55 -31 -42 -41 -50 -37 -17 8 29 42 16 36 -23 -10z"/>
<path d="M3530 1272 c-14 -9 -31 -22 -38 -29 -7 -7 -25 -20 -40 -29 -15 -8
-39 -32 -54 -52 -16 -19 -28 -29 -28 -21 -1 8 -9 -2 -20 -21 -23 -43 -26 -136
-6 -185 l15 -35 43 17 c95 35 333 13 488 -46 57 -22 56 -13 -3 30 -106 77
-238 228 -293 336 -14 29 -29 53 -33 52 -3 0 -17 -8 -31 -17z m-34 -90 c7 -4
20 -25 30 -47 16 -32 38 -51 125 -105 194 -119 194 -126 -1 -24 -99 51 -129
63 -142 54 -50 -29 -108 1 -108 57 0 54 56 92 96 65z"/>
<path d="M3438 1138 c-9 -26 4 -49 26 -46 30 4 30 52 0 56 -12 2 -24 -3 -26
-10z"/>
</g>
</svg>
